<svg width="23" height="17" viewBox="0 0 23 17" fill="none" xmlns="http://www.w3.org/2000/svg">
<path d="M21.3428 9.63571C21.97 9.63571 22.4785 9.12724 22.4785 8.5C22.4785 7.87276 21.97 7.36429 21.3428 7.36429L21.3428 9.63571ZM0.853987 7.69693C0.410463 8.14045 0.410463 8.85955 0.853987 9.30307L8.08163 16.5307C8.52515 16.9742 9.24425 16.9742 9.68777 16.5307C10.1313 16.0872 10.1313 15.3681 9.68777 14.9246L3.2632 8.5L9.68777 2.07543C10.1313 1.63191 10.1313 0.912812 9.68777 0.469288C9.24425 0.0257646 8.52515 0.0257646 8.08163 0.469288L0.853987 7.69693ZM21.3428 7.36429L1.65706 7.36429L1.65706 9.63572L21.3428 9.63571L21.3428 7.36429Z" fill="#25253C"/>
</svg>
