<svg width="17" height="17" viewBox="0 0 17 17" fill="none" xmlns="http://www.w3.org/2000/svg">
<path d="M15.585 1.73171L1.73166 15.585C1.41612 15.9006 0.892769 15.9006 0.577222 15.585C0.261674 15.2695 0.261674 14.7461 0.577222 14.4306L14.4305 0.577271C14.7461 0.261724 15.2694 0.261723 15.585 0.577271C15.9005 0.892819 15.9005 1.41617 15.585 1.73171Z" fill="#B9BEBF"/>
<path d="M14.4675 15.7034L0.614185 1.85007C0.298637 1.53453 0.298637 1.01118 0.614185 0.69563C0.929732 0.380082 1.45308 0.380082 1.76863 0.69563L15.6219 14.5489C15.9375 14.8645 15.9375 15.3878 15.6219 15.7034C15.3064 16.0189 14.7831 16.0189 14.4675 15.7034Z" fill="#B9BEBF"/>
</svg>
