<svg width="28" height="28" viewBox="0 0 28 28" fill="none" xmlns="http://www.w3.org/2000/svg">
<path d="M26.1681 2.90751L2.90757 26.168C2.37774 26.6979 1.49901 26.6979 0.969189 26.168C0.439366 25.6382 0.439366 24.7595 0.969189 24.2297L24.2297 0.969136C24.7595 0.439313 25.6383 0.439312 26.1681 0.969136C26.6979 1.49896 26.6979 2.37769 26.1681 2.90751Z" fill="white"/>
<path d="M24.2913 26.3669L1.03081 3.10642C0.500988 2.5766 0.500988 1.69786 1.03081 1.16804C1.56063 0.638218 2.43937 0.638218 2.96919 1.16804L26.2297 24.4286C26.7595 24.9584 26.7595 25.8371 26.2297 26.3669C25.6999 26.8968 24.8212 26.8968 24.2913 26.3669Z" fill="white"/>
</svg>
