<svg width="45" height="44" viewBox="0 0 45 44" fill="none" xmlns="http://www.w3.org/2000/svg">
<path d="M39.215 14.1632H6.31961C5.57033 14.1632 4.94897 13.5419 4.94897 12.7926C4.94897 12.0433 5.57033 11.422 6.31961 11.422H39.215C39.9643 11.422 40.5856 12.0433 40.5856 12.7926C40.5856 13.5419 39.9643 14.1632 39.215 14.1632Z" fill="white"/>
<path d="M39.215 23.3009H6.31961C5.57033 23.3009 4.94897 22.6796 4.94897 21.9303C4.94897 21.181 5.57033 20.5596 6.31961 20.5596H39.215C39.9643 20.5596 40.5856 21.181 40.5856 21.9303C40.5856 22.6796 39.9643 23.3009 39.215 23.3009Z" fill="white"/>
<path d="M39.215 32.4385H6.31961C5.57033 32.4385 4.94897 31.8172 4.94897 31.0679C4.94897 30.3186 5.57033 29.6972 6.31961 29.6972H39.215C39.9643 29.6972 40.5856 30.3186 40.5856 31.0679C40.5856 31.8172 39.9643 32.4385 39.215 32.4385Z" fill="white"/>
</svg>
