<svg width="23" height="33" viewBox="0 0 23 33" fill="none" xmlns="http://www.w3.org/2000/svg">
<path d="M22.0366 32.1869V6.6494C22.0365 6.37572 21.9206 6.109 21.7055 5.88696C21.4903 5.66492 21.1867 5.49879 20.8375 5.41206L3.30702 1.06746C3.04343 1.00178 2.76259 0.983721 2.48774 1.01477C2.21289 1.04582 1.95194 1.12508 1.72648 1.24601C1.50101 1.36693 1.31753 1.52603 1.1912 1.71015C1.06487 1.89427 0.99933 2.09811 1.00001 2.3048V32.1869" stroke="#A0A3BD" stroke-width="1.6" stroke-linecap="round" stroke-linejoin="round"/>
<path d="M15.022 23.957V25.2604" stroke="#A0A3BD" stroke-width="1.6" stroke-linecap="round" stroke-linejoin="round"/>
<path d="M15.022 17.4395V18.7428" stroke="#A0A3BD" stroke-width="1.6" stroke-linecap="round" stroke-linejoin="round"/>
<path d="M15.022 10.9229V12.2262" stroke="#A0A3BD" stroke-width="1.6" stroke-linecap="round" stroke-linejoin="round"/>
<path d="M8.01465 23.957V25.2604" stroke="#A0A3BD" stroke-width="1.6" stroke-linecap="round" stroke-linejoin="round"/>
<path d="M8.01465 17.4395V18.7428" stroke="#A0A3BD" stroke-width="1.6" stroke-linecap="round" stroke-linejoin="round"/>
<path d="M8.01465 10.9229V12.2262" stroke="#A0A3BD" stroke-width="1.6" stroke-linecap="round" stroke-linejoin="round"/>
</svg>
