<svg width="54" height="54" viewBox="0 0 54 54" fill="none" xmlns="http://www.w3.org/2000/svg">
<circle cx="27" cy="27" r="27" fill="#3A0CA3"/>
<path d="M18.5 37.75H35.5C35.91 37.75 36.25 37.41 36.25 37C36.25 36.59 35.91 36.25 35.5 36.25H18.5C18.09 36.25 17.75 36.59 17.75 37C17.75 37.41 18.09 37.75 18.5 37.75Z" fill="white"/>
<path d="M20.0005 33.2504C20.1905 33.2504 20.3805 33.1804 20.5305 33.0304L34.5305 19.0304C34.8205 18.7404 34.8205 18.2604 34.5305 17.9704C34.2405 17.6804 33.7605 17.6804 33.4705 17.9704L19.4705 31.9704C19.1805 32.2604 19.1805 32.7404 19.4705 33.0304C19.6205 33.1804 19.8105 33.2504 20.0005 33.2504Z" fill="white"/>
<path d="M34 29.52C34.41 29.52 34.75 29.18 34.75 28.77V18.5C34.75 18.09 34.41 17.75 34 17.75H23.73C23.32 17.75 22.98 18.09 22.98 18.5C22.98 18.91 23.32 19.25 23.73 19.25H33.25V28.77C33.25 29.18 33.59 29.52 34 29.52Z" fill="white"/>
</svg>
